<svg width="24" height="24" viewBox="0 0 24 24" fill="none" xmlns="http://www.w3.org/2000/svg">
<path d="M12 7.5V12" stroke="#0C2752" stroke-linecap="round" stroke-linejoin="round"/>
<path d="M15.9 14.25L12 12" stroke="#0C2752" stroke-linecap="round" stroke-linejoin="round"/>
<path d="M6.73125 9.34686H2.98125V5.59686" stroke="#0C2752" stroke-linecap="round" stroke-linejoin="round"/>
<path d="M6.16875 17.8313C7.32226 18.9857 8.79226 19.7721 10.3928 20.091C11.9933 20.4099 13.6525 20.2469 15.1603 19.6227C16.6682 18.9984 17.9571 17.941 18.8639 16.5842C19.7707 15.2273 20.2548 13.632 20.2548 12C20.2548 10.368 19.7707 8.7727 18.8639 7.41585C17.9571 6.059 16.6682 5.00158 15.1603 4.37735C13.6525 3.75313 11.9933 3.59014 10.3928 3.90902C8.79226 4.22789 7.32226 5.0143 6.16875 6.16875L2.98125 9.34688" stroke="#0C2752" stroke-linecap="round" stroke-linejoin="round"/>
</svg>
